<svg id="Layer_1" data-name="Layer 1" xmlns="http://www.w3.org/2000/svg" xmlns:xlink="http://www.w3.org/1999/xlink" viewBox="0 0 511.83 96.44"><defs><style>.cls-1{fill:url(#White_Black);}.cls-2{fill:#333;}.cls-3{fill:#34a2c1;}.cls-4{fill:#f99462;}.cls-5{mask:url(#mask);}.cls-6{opacity:0.3;}.cls-7{fill:#545454;}.cls-8{filter:url(#luminosity-noclip);}</style><linearGradient id="White_Black" x1="257" y1="1" x2="257" y2="99.51" gradientUnits="userSpaceOnUse"><stop offset="0" stop-color="#fff"/><stop offset="1"/></linearGradient><filter id="luminosity-noclip" x="1" y="0.56" width="512" height="96.44" filterUnits="userSpaceOnUse" color-interpolation-filters="sRGB"><feFlood flood-color="#fff" result="bg"/><feBlend in="SourceGraphic" in2="bg"/></filter><mask id="mask" x="-0.17" y="0" width="512" height="96.44" maskUnits="userSpaceOnUse"><g class="cls-8"><g transform="translate(-1.17 -0.56)"><rect class="cls-1" x="1" y="1" width="512" height="96"/></g></g></mask></defs><title>danielPortfolioLogo</title><path class="cls-2" d="M34.23,68.58,44.83,1.64H66.44V95.92H51.75V28.3L41,95.92H26.32L14.74,29.25V95.92H1.17V1.64H22.79Z" transform="translate(-1.17 -0.56)"/><path class="cls-2" d="M128,95.92H112.35l-2.68-17.1H90.6l-2.69,17.1H73.64L89.47,1.64h22.74ZM92.58,66h15l-7.49-47.68Z" transform="translate(-1.17 -0.56)"/><path class="cls-2" d="M155.58,58.34,150.78,67v29H135.24V1.64h15.54V42.72L171.12,1.64h15.54l-21.61,42,21.61,52.26h-16Z" transform="translate(-1.17 -0.56)"/><path class="cls-2" d="M209.26,41.37H230.6V54.84H209.26V82.45h26.85V95.92H193.72V1.64h42.39V15.1H209.26Z" transform="translate(-1.17 -0.56)"/><path class="cls-3" d="M245.71,1.64h24.58c15.54,0,23.17,8.21,23.17,23.3V72.62c0,15.09-7.63,23.3-23.17,23.3H245.71ZM261.25,15.1V82.45H270c4.95,0,7.91-2.42,7.91-9.16v-49c0-6.73-3-9.16-7.91-9.16Z" transform="translate(-1.17 -0.56)"/><path class="cls-3" d="M318.89,41.37h21.33V54.84H318.89V82.45h26.84V95.92H303.35V1.64h42.38V15.1H318.89Z" transform="translate(-1.17 -0.56)"/><path class="cls-3" d="M378.79,78.55,390.66,1.64h14.27L389.67,95.92H366.5L351.24,1.64h15.68Z" transform="translate(-1.17 -0.56)"/><path class="cls-4" d="M435.3,43.39h21.76v29.9c0,15.09-7.92,23.71-23.17,23.71s-23.17-8.62-23.17-23.71v-49c0-15.08,7.91-23.7,23.17-23.7s23.17,8.62,23.17,23.7v9.16h-14.7V23.32c0-6.73-3.1-9.29-8.05-9.29s-8.05,2.56-8.05,9.29V74.24c0,6.73,3.11,9.16,8.05,9.16s8.05-2.43,8.05-9.16V56.86H435.3Z" transform="translate(-1.17 -0.56)"/><path class="cls-4" d="M465.81,24.26c0-15.08,8.34-23.7,23.6-23.7S513,9.18,513,24.26v49C513,88.38,504.66,97,489.41,97s-23.6-8.62-23.6-23.71Zm15.54,50c0,6.73,3.11,9.29,8.06,9.29s8-2.56,8-9.29V23.32c0-6.73-3.11-9.29-8-9.29s-8.06,2.56-8.06,9.29Z" transform="translate(-1.17 -0.56)"/><g class="cls-5"><g class="cls-6"><path class="cls-7" d="M65,94.8H63.56V85H65.5l.94,3.51V78h-.1V68.19h.1v-7H65.06V51.39h1.38V10.8h-.21a1.47,1.47,0,0,1-1.56-1.55l-.11-1.88c0-.65-.18-.84-.77-.84V5.27c.59,0,.73-.2.77-.84l.11-1.88a1.78,1.78,0,0,1,.3-.91H62.6A2.47,2.47,0,0,1,63,3.14V8.66c0,1.57-.62,2.14-2.16,2.14h-.48V9.54h.38c.49,0,.72-.18.72-.88V3.14c0-.7-.23-.89-.72-.89h-.38V1.64h-.61V2.4H57.07V5.13h2.11v1.4H57.07V9.4h2.66v1.4h-4.2V1.64H53.09V2.4H51.48v8.4H49.94V2.4H48.33V1.64h-.44v.61h-.38c-.49,0-.72.19-.72.89V8.66c0,.7.23.88.72.88h.38V10.8h-.48c-1.54,0-2.16-.57-2.16-2.14V3.14a2.47,2.47,0,0,1,.38-1.5h-.8l-.78,4.9V10.8h-.67l-1.74,11h.28v1.4h-.4v3.22a2.79,2.79,0,0,0,.17,1.19h-1l-1.11,7h1.57V36H39.39L39,38.73h1.67v1.4H38.74l-.22,1.36V43h2.66v1.4H38.06L35.62,59.8h1.57v1.4H35.4l-1.11,7h3.15V69.6H34.78v2.73H36.9v1.4H34.78V76.6h2.66V78h-4.2V68.19h.93L30.1,44.4h-.32a1.47,1.47,0,0,1-1.55-1.55L28.12,41c0-.65-.18-.84-.77-.84V38.87c.59,0,.73-.2.77-.84l.11-1.88a1.86,1.86,0,0,1,.3-.92l-1.3-7.63H25.88V19.71l-1.59-9.29a2.28,2.28,0,0,1-1.53.49c-1.52,0-2.3-.89-2.3-2.46V3.35A2.66,2.66,0,0,1,21,1.64H19.48V10.8H17.9L16,3.7v7.1H14.59V1.64h-1V8.46c0,1.57-.78,2.47-2.3,2.47S9,10,9,8.46V1.64H8.3V2.4H5.76V5.35h2v1.4h-2V10.8H4.22V1.64H3.1V5.08L2.91,8.63H1.76l-.2-3.55V1.64H1.17v33h4.7V36H4.26v8.4H2.72V36H1.17V51.39h4.7V52.8H4.26v8.4H2.72V52.8H1.17V95.92H14.74V78H13.5V69.6H11.89V68.19h2.85v-7H13.35l-1.92-7.1v7.1H10V51.39H12l1.58,5.87V51.39h1.18v-7h0V34.59h0V29.25l.93,5.34h1l1.58,5.87V34.59h1.37V44.4H18l-1.88-6.95L20,59.72h1V61.2h-.74l1.21,7h.75l-.47,1.6,2.69,15.5a1.56,1.56,0,0,1,.62,1.26l.12,1.88c0,.64.18.84.77.84v1.26a.79.79,0,0,0-.57.16l.91,5.23h7.74l.33-1.12H33.8V93.32h1.49v1.33l-.56,1.27H41l.64-4V85h1.1l1.72-10.83V70.55a2.36,2.36,0,0,1,.91-2.1l1.21-7.67a2.51,2.51,0,0,1-.71-1.93v-.61H47l.27-1.75a3.6,3.6,0,0,1-1.35-2.74c0-1.54.75-2.42,2.18-2.46l1.08-6.78A2.13,2.13,0,0,1,47,42.06V34.59h1.55v7.57c0,.7.3,1,.79,1h0l.78-4.93V34.59h.57l1-6.29V59.72h1V61.2h-1v6.92a3.42,3.42,0,0,1,.46,0,2.18,2.18,0,0,1,2.34,2.47v5.1a2.17,2.17,0,0,1-2.34,2.46,3.44,3.44,0,0,1-.46,0V88.22h.39v1.09h-.39v1.18h.39v1.09h-.39v4.34H66.44v-2.7L65,87.7ZM12.28,88h1.49v1.48H12.28Zm0,5.34h1.49V94.8H12.28Zm-5-75.53h4.2V19.2H8.81v2.73h2.12v1.4H8.81V26.2h2.66v1.4H7.27ZM1.59,9.32H3.07V10.8H1.59Zm0,58.87h4.2V69.6H3.1v2.73H5.22v1.4H3.1V76.6H5.76V78H1.56ZM6.08,92.46c0,1.57-.78,2.47-2.29,2.47s-2.3-.9-2.3-2.47V85H3v7.57c0,.7.31,1,.8,1s.8-.25.8-1V85H6.08Zm.21-67.28c0,1.57-.75,2.42-2.29,2.42H1.56V17.79H4c1.54,0,2.29.86,2.29,2.43Zm.25,9.41H8.08V44.4H6.54Zm.1,16.8H9.19v1.27h-1v7.28h1V61.2H6.64Zm4.69,35H8.67v2.73h2.12v1.4H8.67V93.4h2.66v1.4H7.13V85h4.2Zm0-16v.77a2,2,0,0,1-1,2c.77.32,1,1.06,1,2.09v1.51A2.93,2.93,0,0,0,11.5,78H9.93a3.12,3.12,0,0,1-.14-1.21V75.25c0-.91-.3-1.24-1-1.24H8.25v4H6.71V68.19H9A2,2,0,0,1,11.32,70.45Zm2.44-28.4a2.17,2.17,0,0,1-2.34,2.46,2.17,2.17,0,0,1-2.34-2.46V37a2.18,2.18,0,0,1,2.34-2.47A2.18,2.18,0,0,1,13.76,37ZM16.5,19.2H14v2.95h2v1.4H14V27.6H12.42V17.79H16.5Zm2.28,8.4H17.24V17.79h1.54Zm9.8,23.79h2.25L32.4,61.2H30.85l-.27-1.78H28.69l-.26,1.78H27ZM30.64,78V76.52h1.48v1.33l-.67,1.55h-.63l.41-1.4Zm-4.1-41.26v5.52c0,1.57-.62,2.14-2.16,2.14H23.9V43.14h.38c.49,0,.72-.18.72-.88V36.74c0-.7-.23-.88-.72-.88H23.9V34.59h.48C25.92,34.59,26.54,35.17,26.54,36.74Zm-6.65-19h1.93l1.58,5.87V17.79h1.37V27.6H23.19l-1.92-7.1v7.1H19.89Zm.93,24.47V36.74c0-1.57.62-2.15,2.16-2.15h.48v1.27h-.38c-.49,0-.72.18-.72.88v5.52c0,.7.23.88.72.88h.38V44.4H23C21.44,44.4,20.82,43.83,20.82,42.26Zm4.78,27.2h-.38c-.49,0-.71.18-.71.88v5.52c0,.7.22.88.71.88h.38V78h-.48C23.58,78,23,77.43,23,75.86V70.34c0-1.57.61-2.15,2.15-2.15h.48Zm-1.42-8.15c-1.51,0-2.29-.89-2.29-2.46v-5.1c0-1.57.78-2.47,2.29-2.47s2.3.9,2.3,2.47v1H25V53.65c0-.7-.3-1-.79-1s-.8.27-.8,1V59c0,.7.31.95.8.95S25,59.65,25,59V57.54h1.46v1.31C26.48,60.42,25.7,61.31,24.18,61.31ZM29,92.66c0,1.57-.62,2.14-2.16,2.14h-.48V93.54h.38c.49,0,.72-.18.72-.88V87.14c0-.7-.23-.89-.72-.89h-.38V85h.48c1.54,0,2.16.58,2.16,2.15ZM29.2,78H27.66V69.6H26V68.19h4.77V69.6H29.2Zm3.89,12.53c-.59,0-.73.19-.77.84l-.11,1.88a1.47,1.47,0,0,1-1.56,1.55h-.78V93.54h.22c.49,0,.7-.22.74-1l.07-1.4a1.2,1.2,0,0,1,.91-1.24,1.21,1.21,0,0,1-.91-1.25l-.07-1.4c0-.77-.25-1-.74-1h-.22V85h.78a1.47,1.47,0,0,1,1.56,1.56l.11,1.88c0,.64.18.84.77.84Zm4.77-39.14H39.4V59.8h2.54v1.4H37.86ZM38,94.8H36.4V85H38ZM38.39,78V76.52h1.49v1.33l-.67,1.55h-.63L39,78Zm2.16,16.8H39.06V93.32h1.49Zm3.26-25.34h-.22c-.49,0-.7.22-.74,1l-.07,1.4a1.2,1.2,0,0,1-.91,1.25,1.2,1.2,0,0,1,.91,1.24l.07,1.41c0,.77.25,1,.74,1h.22V78H43a1.47,1.47,0,0,1-1.56-1.55l-.11-1.88c0-.65-.18-.84-.77-.84V72.47c.59,0,.73-.2.77-.84l.11-1.88A1.47,1.47,0,0,1,43,68.19h.78Zm1.53-16.8H45c-.49,0-.71.18-.71.88v5.52c0,.7.22.88.71.88h.38V61.2h-.48c-1.54,0-2.16-.57-2.16-2.14V53.54c0-1.57.62-2.15,2.16-2.15h.48ZM46.44,36H44.83v8.4H43.29V36H41.68V34.59h4.76Zm.92-10.82c0,1.57-.76,2.42-2.3,2.42H42.62V17.79h2.44c1.54,0,2.3.86,2.3,2.43ZM61,17.79h1.93l1.58,5.87V17.79h1.38V27.6H64.25l-1.92-7.1v7.1H61ZM60.13,61.2H58.69l1.73-5L58.8,51.39h1.6L61.56,55l1.19-3.62h1.43l-1.61,4.77,1.72,5H62.67l-1.26-3.88Zm.29,7V78H58.83l-1.91-7.1V78H55.53V68.19h1.93L59,74.06V68.19ZM58.3,17.79h1.54V27.6H58.3Zm0,16.8h1.93l1.59,5.87V34.59h1.37V44.4H61.61l-1.92-7.1v7.1H58.3Zm-.74-16.8V19.2H55v2.95h2v1.4H55V27.6H53.49V17.79ZM52.92,9.32h1.49v1.33l-.67,1.55h-.63l.4-1.4h-.59Zm-.38,9.88H49.87v2.73H52v1.4H49.87V26.2h2.67v1.4H48.33V17.79h4.21Zm.15,25.2V34.59H55c1.6,0,2.28.75,2.28,2.26v.77a2,2,0,0,1-1,2c.77.32,1,1.06,1,2.09v1.51a2.77,2.77,0,0,0,.17,1.19H55.91a2.9,2.9,0,0,1-.14-1.2V41.66c0-.92-.31-1.25-1-1.25h-.53v4Zm1.2,16.8V51.39h4.2V52.8H55.43v2.73h2.12v1.4H55.43V59.8h2.66v1.4Zm3.38,25.2H54.73v2.95h2v1.4h-2v4H53.19V85h4.08Zm5.26,6.06c0,1.57-.78,2.47-2.3,2.47s-2.29-.9-2.29-2.47V85h1.54v7.57c0,.7.31,1,.8,1s.79-.25.79-1V85h1.46ZM63.06,78H61.52V68.19H65.6V69.6H63.06v3h2V74h-2Z" transform="translate(-1.17 -0.56)"/><path class="cls-7" d="M89.63,85l1-6.17h19.07l1,6.17h.51l1.18,8,1.17-8h1.42L113.4,94.8h-1.22l.17,1.12H128L123.62,69.6h-1.73v2.73H124v1.4h-2.11V76.6h2.66V78h-4.2V68.19h3l-1.17-7h-1.37V53L118.42,38.6v3.66c0,1.57-.62,2.14-2.16,2.14h-.48V43.14h.38c.49,0,.72-.18.72-.88V36.74c0-.7-.23-.88-.72-.88h-.38V34.59h.48a2.39,2.39,0,0,1,1.55.41l-1.87-11.17V27.6H114.4V17.79h.52L113.21,7.58h-.49V6.49H113l-.2-1.18h-.11V4.64l-.51-3h-6.13l-.18,2.24h-1.05l-.16-2.24h-.56L104,3.88h-1l-.16-2.24H102V2.4h-1.61v8.4H98.87V2.4H97.26V1.64h-1a2.66,2.66,0,0,1,.5,1.71V4.3H95.32v-1c0-.7-.31-1-.8-1s-.8.27-.8,1V8.54c0,.71.31,1,.8,1s.8-.25.8-1V7.14h1.45V8.45c0,1.57-.78,2.46-2.29,2.46s-2.3-.89-2.3-2.46V3.35a2.66,2.66,0,0,1,.5-1.71H91.36V2.4h-2l-.46,2.73h1.93v1.4H88.69V9.4h2.67v1.4H87.93l-1.17,7h.09V27.6H85.39V25.91l-1.47,8.78A2.73,2.73,0,0,1,85,34.48c1.51,0,2.3.9,2.3,2.47v.95H85.84v-1c0-.7-.31-1-.8-1s-.8.27-.8,1v5.3c0,.7.31,1,.8,1s.8-.25.8-1V40.74H87.3v1.31a2.31,2.31,0,1,1-4.6,0V42l-1.58,9.44h4.71V52.8H84.22v8.4H82.67V52.8H81.06V51.71L80.17,57a2.78,2.78,0,0,1,.34,1.47V60a2.94,2.94,0,0,0,.16,1.19h-1.2l-1.17,7H79v7.47c0,1.57-.78,2.47-2.3,2.47h-.05L75.48,85h3.79V86.4H77.66v8.4H76.12V86.4h-.88l-1.6,9.52H87.91l.22-1.4V85ZM121,85h2.32c1.6,0,2.28.75,2.28,2.26V88a2,2,0,0,1-1,2c.77.32,1,1.06,1,2.09v1.51a2.79,2.79,0,0,0,.17,1.19H124.2a2.92,2.92,0,0,1-.14-1.21V92.05c0-.91-.31-1.24-1-1.24h-.53v4H121ZM96.12,75.67A2.09,2.09,0,0,1,93.78,78H91.35V68.19h2.33c1.6,0,2.28.75,2.28,2.26v.35a2,2,0,0,1-1,2,2,2,0,0,1,1.15,2.1Zm5,2.33H97V68.19h1.54V76.6h2.53ZM106,69.6h-2.67v2.73h2.12v1.4h-2.12V76.6H106V78h-4.21V68.19H106Zm2.43,8.4h-1.48V76.52h1.48Zm0-5.34h-1.48V71.18h1.48Zm.13-11.46h-1.49V59.72h1.49Zm1.2-18.06h.38V44.4h-.48c-1.54,0-2.15-.57-2.15-2.14V36.74c0-1.57.61-2.15,2.15-2.15h.48v1.27h-.38c-.49,0-.71.18-.71.88v5.52C109,43,109.26,43.14,109.75,43.14ZM111.05,78h-1.48V76.52h1.48Zm0-5.71-.2,3.54h-1.14l-.2-3.54v-4.1h1.54ZM109.67,61.2V51.39h4.2V52.8h-2.66v2.73h2.11v1.4h-2.11V59.8h2.66v1.4ZM114.34,78V70.52h-1.19V69.43a1.54,1.54,0,0,0,1.7-1.24h1V78Zm4.37,16.8L118.44,93h-1.89l-.26,1.78h-1.42L116.44,85h2.26l1.56,9.81Zm-1-16.8V76.52h1.49v1.33l-.67,1.55h-.64l.41-1.4Zm-1.56-26.61L117.34,55l1.19-3.62H120l-1.61,4.77,1.72,5h-1.62l-1.26-3.88-1.28,3.88h-1.44l1.72-5-1.61-4.77Zm-.84-16.8V36h-1.61v8.4h-1.54V36h-1.62V34.59Zm-1.68-16.8V19.2h-2.54v2.95h2v1.4h-2V27.6h-1.54V17.79ZM107.17,4.22h4.57V5.31h-4.57Zm0,2.27h4.57V7.58h-4.57Zm-2.74,11.3h4.2V19.2H106v2.73h2.12v1.4H106V26.2h2.66v1.4h-4.2Zm-3.28,0c1.55,0,2.3.86,2.3,2.43v5c0,1.44-.64,2.26-1.94,2.39l1.11,7h.72l1.58,5.87V34.59h1.37V44.4h-1.58l-1.32-4.9,1.9,12.12a2.33,2.33,0,0,1,.95,2.13v.31h-.57l1.88,12h-15l1.71-10.91A3.14,3.14,0,0,1,94,53.75a2.42,2.42,0,0,1,.82-2l1.29-8.17a2.81,2.81,0,0,1-.36-1.49V37a2.16,2.16,0,0,1,1.77-2.42l1.2-7.62V17.79ZM94.73,27.6V26.12h1.48V27.6ZM93.4,20.15c0-1.57.77-2.47,2.27-2.47s2.27.9,2.27,2.47c0,2.55-1.82,2.94-1.82,4.73a2.56,2.56,0,0,0,0,.55H94.8a1.72,1.72,0,0,1-.09-.6c0-2.15,1.69-2.34,1.69-4.78,0-.7-.28-1-.77-1s-.78.27-.78,1v1.06H93.4Zm-.18,14.44h1.54V44.4H93.22Zm-.07,25.13v1.33l-.68,1.55h-.63l.41-1.4h-.59V59.72ZM88,17.79H90.4c1.54,0,2.3.86,2.3,2.43v5c0,1.57-.76,2.42-2.3,2.42H88Zm-.19,16.8h4.77V36H90.94v8.4H89.39V36H87.78ZM86.26,58.24h1.45V59c0,.7.31.95.8.95s.8-.25.8-.95c0-2-3-2.4-3-5.2,0-1.57.77-2.47,2.27-2.47s2.27.9,2.27,2.47v.31H89.38v-.41c0-.7-.28-1-.77-1s-.77.27-.77,1c0,2,3,2.39,3,5.2,0,1.57-.78,2.46-2.29,2.46s-2.3-.89-2.3-2.46ZM81.48,94.8H79.94V85h1.54ZM81.57,74v4H80V68.19h2.32c1.6,0,2.29.75,2.29,2.26v.77a2,2,0,0,1-1,2c.77.32,1,1.06,1,2.09v1.51A2.77,2.77,0,0,0,84.82,78H83.25a3.12,3.12,0,0,1-.14-1.21V75.25c0-.91-.31-1.24-1-1.24Zm5.59,18.44a2.34,2.34,0,1,1-4.68,0v-5.1a2.34,2.34,0,1,1,4.68,0Zm-.23-16.23L86.66,78H85.25l1.57-9.81h2.25L90.64,78H89.09l-.27-1.78Z" transform="translate(-1.17 -0.56)"/><path class="cls-7" d="M135.68,2.4V5.13h2.11v1.4h-2.11V9.4h2.66v1.4h-3.1V34.59h1.33c1.6,0,2.29.75,2.29,2.26v.77a2,2,0,0,1-1,2c.77.32,1,1.06,1,2.09v1.51A2.77,2.77,0,0,0,139,44.4h-1.57a3.09,3.09,0,0,1-.14-1.2V41.66c0-.92-.31-1.25-1-1.25h-.53v4h-.55v7.23a2,2,0,0,1,1,2v.77a2,2,0,0,1-1,2c.77.32,1,1.06,1,2.09V60a2.93,2.93,0,0,0,.17,1.19h-1.21v7H136v7.47a2.46,2.46,0,0,1-.76,2V88.22h3.18v1.09h-3.18v1.18h3.18v1.09h-3.18v4.34h15.54v-1.5a2.54,2.54,0,0,1-.52-1.75v-1a2.4,2.4,0,0,1,.52-1.65v-.81a2.27,2.27,0,0,1-.52-1.62v-.18a2.65,2.65,0,0,1,.52-1.73V78h-1V68.19h1V67l3.34-6a2.9,2.9,0,0,1-1.28.23h-.47V59.94h.37c.49,0,.72-.18.72-.88V53.54c0-.7-.23-.88-.72-.88h-.37V51.39h.47c1.54,0,2.16.58,2.16,2.15v5.52c0,.13,0,.25,0,.37l.6-1.09.63,1.57v-.19h1.49v1.33l-.53,1.23,3.93,9.78V68.19h2.33a2,2,0,0,1,2.28,2.26v.35a1.94,1.94,0,0,1-1,2,2,2,0,0,1,1.15,2.1v.79A2.09,2.09,0,0,1,163.52,78h0l6.81,16.94h5.94v1h10.42L185.88,94a2.1,2.1,0,0,1-1.88.87c-1.51,0-2.29-.89-2.29-2.46v-.61h1.45v.7c0,.71.31,1,.8,1s.8-.25.8-1c0-2-3-2.39-3-5.19a2.59,2.59,0,0,1,.6-1.85L177,72.66h-.36v-.87l-1-2.3v.11h-2.66v2.73h2.12v1.4h-2.12V76.6h2.66V78h-4.2V68.19h3.67L165.05,43.66l2.24-4.35V34.59h1.54v1.72l4.94-9.61v-.58h.3l2.4-4.67V17.79h1.88l3.6-7H180.6V2.4H179V1.64h-1.05a2.38,2.38,0,0,1,.48,1.61V4a2,2,0,0,1-1,2c.77.32,1,1.06,1,2.09V9.61a3,3,0,0,0,.17,1.19H177a3.12,3.12,0,0,1-.14-1.21V8.05c0-.91-.3-1.24-1-1.24h-.53v4h-1.54V1.64H172.3a2.61,2.61,0,0,1,.52,1.71v5.1a2.34,2.34,0,1,1-4.68,0V7.66l-5.5,11.1v.44h-.21l-1.35,2.73h1v1.4h-1.72l-.4.81V26.2h2.66v1.4h-4.2v-.35l-3.64,7.34h.76v1.27h-.23c-.49,0-.7.22-.74,1l-.07,1.4a1.2,1.2,0,0,1-.91,1.25,1.2,1.2,0,0,1,.91,1.24l.07,1.41c0,.77.25,1,.74,1h.23V44.4h-.79a1.46,1.46,0,0,1-1.55-1.55L153.11,41c-.05-.65-.19-.84-.77-.84v-.55l-.65,1.29v.31h-.15l-.76,1.54V41.18h-3.65V40.09h3.65V38.91h-3.65V37.82h3.65V26.54l-.11-.72h-1.89l-.27,1.78H147.1l1.57-9.81h2.11V1.64h-1.87V2.4h-2.54V5.35h2v1.4h-2V10.8h-1.54V1.64h-1.51a2.61,2.61,0,0,1,.52,1.71v5.1a2.34,2.34,0,1,1-4.68,0V3.35a2.66,2.66,0,0,1,.52-1.71h-1.34V2.4ZM181,86.4h-2.67v2.73h2.12v1.4h-2.12V93.4H181v1.4h-4.21V85H181Zm-4.32-9.88h1.49V78h-1.49ZM170.86,78h-4.08V68.19h1.54V76.6h2.54Zm-4.34-26.61h1.54V59.8h2.54v1.4h-4.08Zm6.13-33.6-.22,2.89h-1.05l-.21-2.89Zm-2,0-.22,2.89h-1l-.21-2.89Zm-5.3,41.93V61.2h-1.48V59.72Zm-1.81-41.93h2.33a2,2,0,0,1,2.28,2.26v.77a2,2,0,0,1-1,2c.77.32,1,1.06,1,2.09v1.51a3,3,0,0,0,.17,1.19h-1.57a3.12,3.12,0,0,1-.14-1.21V24.85c0-.91-.3-1.24-1-1.24h-.53v4h-1.54Zm-1.05,16.8h4.08V36h-2.54v3h2v1.4h-2v4h-1.54Zm.55,19.16v.31h-1.46v-.41c0-.7-.28-1-.77-1s-.77.27-.77,1c0,2,3,2.39,3,5.2a2.31,2.31,0,1,1-4.6,0v-.61H160V59c0,.7.31.95.8.95s.79-.25.79-.95c0-2-3-2.4-3-5.2,0-1.57.77-2.47,2.27-2.47S163.09,52.18,163.09,53.75Zm-3.15-16.17h1.48v1.48h-1.48Zm0,5.34h1.48v1.33l-.67,1.55h-.63l.4-1.4h-.58Zm-3.94.22h.23c.49,0,.7-.22.74-1l.07-1.41A1.2,1.2,0,0,1,158,39.5a1.2,1.2,0,0,1-.91-1.25l-.07-1.4c0-.77-.25-1-.74-1H156V34.59h.79a1.46,1.46,0,0,1,1.55,1.56l.11,1.88c.05.64.19.84.77.84v1.26c-.58,0-.72.19-.77.84l-.11,1.88a1.46,1.46,0,0,1-1.55,1.55H156Zm-6,8.25h1.54V61.2H150ZM138.38,71.07V78H137V68.19h2.15l1.13,7,1.05-7h2.15V78h-1.46V71L141,78h-1.45Zm5.4,15.33h-1.61v8.4h-1.54V86.4H139V85h4.76ZM149.55,89v1.4h-.4v3.22a3,3,0,0,0,.16,1.19h-1.56a2.37,2.37,0,0,1-.15-.77,1.45,1.45,0,0,1-1.42.88c-1.14,0-1.71-.8-1.71-2.24v-1a2,2,0,0,1,1.06-2.06,1.92,1.92,0,0,1-1.06-2v-.18c0-1.57.75-2.43,2.29-2.43h1.77V86.4h-1.74c-.49,0-.78.25-.78.95V88c0,.78.35,1,.92,1h.67v-1.1h1.55V89Zm-2.11-29.27h1.48v1.33l-.67,1.55h-.63l.41-1.4h-.59Zm1.38,8.47V69.6h-2.66v2.73h2.12v1.4h-2.12V76.6h2.66V78h-4.2V68.19Zm-4.43-15.51c-.49,0-.77.27-.77,1,0,2,3,2.39,3,5.2a2.31,2.31,0,1,1-4.6,0v-.61h1.46V59c0,.7.31.95.8.95s.8-.25.8-.95c0-2-3-2.4-3-5.2,0-1.57.77-2.47,2.26-2.47s2.27.9,2.27,2.47v.31h-1.45v-.41C145.16,53,144.88,52.68,144.39,52.68Zm1.31-14v1.4h-2.11V43h2.66v1.4h-4.2V34.59h4.2V36h-2.66v2.73Zm-4.17-20.94h1.54V22h1.75V17.79h1.57V27.6h-1.57V23.4h-1.75v4.2h-1.54Zm.07,33.6V52.8H140v8.4h-1.54V52.8h-1.61V51.39Zm-.78-31.17v1.27c0,1.57-.76,2.43-2.3,2.43h-.73V27.6h-1.54V17.79h2.27C140.06,17.79,140.82,18.65,140.82,20.22Z" transform="translate(-1.17 -0.56)"/><path class="cls-7" d="M193.72,2.4V3.89h.63V5h.41v1.4h-.41V9.61a3,3,0,0,0,.17,1.19h-.8V34.52a3.27,3.27,0,0,1,.45,0A2.18,2.18,0,0,1,196.51,37v5.1a2.17,2.17,0,0,1-2.34,2.46,3.29,3.29,0,0,1-.45,0V59.72h.48V61.2h-.48v7.43a2.48,2.48,0,0,1,.7,1.92v1h-.7v1h.7v3.11a2.49,2.49,0,0,1-.7,1.92V95.92h42.39V82.45H209.26V71.75L209,70.9V78h-1.39V68.19h1.61V57.48a3.75,3.75,0,0,1-.5,0H208V61.2h-1.54V51.39h2.27c1.54,0,2.3.86,2.3,2.43v1h.58V53.75a2.34,2.34,0,1,1,4.68,0v1.09h1V51.39h2.33a2,2,0,0,1,2.28,2.26v.77a2.85,2.85,0,0,1,0,.42h2.22v-2h-1.61V51.39h4.76V52.8h-1.61v2h2.27a3.32,3.32,0,0,1-.18-1.09c0-1.57.77-2.47,2.27-2.47a3.81,3.81,0,0,1,.6.06v-10h-1.49v3h-1.54v-3h-1.12v3h-1.54v-3h-1.79l0,.78c0,.77.25,1,.74,1h.23V44.4h-.79a1.46,1.46,0,0,1-1.55-1.55l-.09-1.48h-1.61v.89c0,1.57-.61,2.14-2.15,2.14h-.48V43.14h.38c.49,0,.71-.18.71-.88v-.89h-1.86v3h-1.58l-.82-3h-1.1v3h-1.38v-3h-1.87v.89c0,.7.23.88.72.88H211V44.4h-.48c-1.54,0-2.16-.57-2.16-2.14V36.74c0-1,.27-1.61.86-1.91V27.6h-1.89V17.79h1.89V15.1h26.85V1.64h-.63V2.4h-1.61v8.4h-1.54V2.4h-1.61V1.64h-1a2.66,2.66,0,0,1,.5,1.71V4.3h-1.45v-1c0-.7-.31-1-.8-1s-.8.27-.8,1V8.54c0,.71.31,1,.8,1s.8-.25.8-1V7.14h1.45V8.45c0,1.57-.78,2.46-2.29,2.46s-2.3-.89-2.3-2.46V3.35a2.66,2.66,0,0,1,.5-1.71h-1.32V2.4h-2.67V5.13h2.12v1.4h-2.12V9.4h2.67v1.4h-4.21V1.64h-1.05V8.36c0,2-1.05,2.47-2.21,2.47a5.86,5.86,0,0,1-.74,0V9.4h.53c.49,0,.88-.18.88-.94V1.64h-2.55A2.33,2.33,0,0,1,216,3.25V3.6a1.93,1.93,0,0,1-1,2,2,2,0,0,1,1.15,2.1v.79a2.09,2.09,0,0,1-2.34,2.33h-2.43V1.64h-1.51a2.61,2.61,0,0,1,.52,1.71v5.1a2.34,2.34,0,1,1-4.68,0V3.35a2.61,2.61,0,0,1,.53-1.71h-1.57l-.17,2.24h-1.05l-.17-2.24h-.55l-.18,2.24h-1l-.16-2.24h-1.77V2.4h-1.74c-.49,0-.78.25-.78,1V4c0,.78.35,1,.92,1h.68V3.89h1.54V5h.4v1.4h-.4V9.61a2.79,2.79,0,0,0,.17,1.19h-1.57a2.44,2.44,0,0,1-.14-.77,1.47,1.47,0,0,1-1.43.88c-1.14,0-1.71-.8-1.71-2.24v-1a2,2,0,0,1,1.06-2.06,1.94,1.94,0,0,1-1.06-2V3.42A2.55,2.55,0,0,1,196,1.64h-2.29V2.4Zm5.59,90.05a2.34,2.34,0,1,1-4.68,0v-5.1a2.34,2.34,0,1,1,4.68,0Zm.31-22.85H197v2.73h2.12v1.4H197V76.6h2.67V78h-4.21V68.19h4.21Zm.61-18.21h1.6L203,55l1.19-3.62h1.43L204,56.16l1.72,5H204.1l-1.26-3.88-1.28,3.88h-1.44l1.72-5Zm4.65,16.8V69.6h-1.61V78h-1.54V69.6h-1.61V68.19ZM205,92.38c0,1.57-.75,2.42-2.29,2.42H200.3V85h2.44c1.54,0,2.29.86,2.29,2.43Zm0-15.86h1.48V78h-1.48ZM224,94.8h-1.48V93.32H224ZM231.26,85h1.55v7.57c0,.7.3,1,.79,1s.8-.25.8-1V85h1.46v7.47c0,1.57-.79,2.47-2.3,2.47s-2.3-.9-2.3-2.47Zm-4.74,0h4.08V86.4h-2.54v2.95h2v1.4h-2v4h-1.54Zm-5.32,2.36c0-1.57.77-2.47,2.27-2.47s2.27.9,2.27,2.47c0,2.55-1.82,2.94-1.82,4.73a2.56,2.56,0,0,0,.05.55H222.6a1.74,1.74,0,0,1-.08-.6c0-2.15,1.68-2.34,1.68-4.78,0-.7-.28-1-.77-1s-.77.27-.77,1v1.06H221.2ZM216.33,85h4.2V86.4h-2.66v2.73H220v1.4h-2.11V93.4h2.66v1.4h-4.2Zm-4.75,0h1.54V93.4h2.54v1.4h-4.08Zm-3.3,8.52c.49,0,.8-.25.8-1V85h1.45v7.47c0,1.57-.78,2.47-2.29,2.47s-2.3-.9-2.3-2.47V85h1.54v7.57C207.48,93.26,207.79,93.51,208.28,93.51Zm-1.74-22.33v1.48h-1.48V71.18Zm.65-26.78h-1.54V34.59h1.54ZM201.7,20.15a2.34,2.34,0,1,1,4.68,0v5.1a2.34,2.34,0,1,1-4.68,0ZM201,34.59h1.37V44.4h-1.58l-1.92-7.1v7.1h-1.39V34.59h1.94L201,40.46Zm-.29-16.8-.23,2.89h-1l-.21-2.89Zm-2,0-.23,2.89h-1.05l-.21-2.89Zm.76,33.6V52.8h-2.66v2.73H199v1.4h-2.11V59.8h2.66v1.4h-4.2V51.39ZM196.15,27.6h-1.48V26.12h1.48Zm0-6.82v1.48h-1.48V20.78Z" transform="translate(-1.17 -0.56)"/><path class="cls-7" d="M288.41,86.4V85h2.66a24.53,24.53,0,0,0,2-7h-.39V76.74h.38l.14,0a38.23,38.23,0,0,0,.23-4.1V69.53a.82.82,0,0,0-.37-.07h-.38V68.19h.48l.27,0V52.8H293v8.4h-1.54V52.8H289.8V51.39h3.66v-7h-.78V34.59h.78v-7h-1V17.79h.3a21.09,21.09,0,0,0-3.39-8.11l-.17,1.12h-1.45l-.61-3.68c-.18-.16-.36-.33-.54-.48V10.8h-1.35V5.6A19.71,19.71,0,0,0,279.83,3V5.35h2v1.4h-2V10.8h-1.54V2.52c-.37-.09-.76-.16-1.15-.23a3.15,3.15,0,0,1,.16,1.06v5.1a2.34,2.34,0,1,1-4.68,0V3.35a2.75,2.75,0,0,1,.45-1.62c-.41,0-.85,0-1.27,0V2.4h-2.66V5.13h2.11v1.4h-2.11V9.4h2.66v1.4h-4.2V1.64h-1.27a2.55,2.55,0,0,1,.55,1.78V4.69c0,1.57-.75,2.43-2.29,2.43h-.73V10.8h-1.54V1.64h-.81l-1.75,5.91V10.8h-1.54V7.55l-1.76-5.91h-.36V2.4h-1.61v8.4H253V2.4h-1.61V1.64h-5.63V21h1.06v1.09h-1.06v1.18h1.06v1.09h-1.06V34.59h.77l1.58,5.87V34.59h1.38V44.4h-1.59l-1.91-7.1v7.1h-.23v7h.88V52.8h-.88v2.73H246v1.4h-.33V59.8h.88v1.4h-.88v7h1.76V69.6h-1.76v3h1.21V74h-1.21V85a2.13,2.13,0,0,1,1.64,2.39v1H245.9v-1a1.09,1.09,0,0,0-.19-.69v6.67a1.09,1.09,0,0,0,.19-.69v-1.4h1.45v1.31a2.14,2.14,0,0,1-1.64,2.39v1.08h24.58a32.4,32.4,0,0,0,8.82-1.12h-1V85h2.32c1.6,0,2.29.75,2.29,2.26V88a2,2,0,0,1-1,2c.77.32,1,1.06,1,2.09v1.38c.35-.17.68-.36,1-.55V85h4.2V86.4h-2.66v2.73h2.11v1.11A16.8,16.8,0,0,0,290,86.93V86.4Zm-2.2-68.61h1.6L289,21.41l1.19-3.62h1.43L290,22.56l1.73,5h-1.63l-1.26-3.88-1.28,3.88H286.1l1.73-5Zm-1.58,37.92V54.62h4.57v1.09Zm4.57,1.18V58h-4.57V56.89ZM287.82,44.4l-1.92-7.1v7.1h-1.38V34.59h1.93L288,40.46V34.59h1.38V44.4ZM253.9,17.79l1.18,4.47,1.18-4.47h1.47l-2,6.56V27.6h-1.54V24.35l-2-6.56Zm.2,18.07h-.38V34.59h.47c1.55,0,2.16.58,2.16,2.15v5.52c0,1.57-.61,2.14-2.16,2.14h-.47V43.14h.38c.49,0,.71-.18.71-.88V36.74C254.81,36,254.59,35.86,254.1,35.86Zm-3.81,0V34.59h2.55V44.4h-2.55V43.14h1V35.86ZM246.18,4.22h4.56V5.31h-4.56Zm0,3.36V6.49h4.56V7.58Zm2.8,20V19.2h-1.61V17.79h4.76V19.2h-1.61v8.4Zm-1.89,25.2V51.39h4.76V52.8h-1.61v8.4H248.7V52.8Zm5.51,33.6H251v8.4h-1.54V86.4h-1.61V85h4.76Zm.13-10.74c0,1.57-.78,2.47-2.3,2.47s-2.29-.9-2.29-2.47V68.19h1.54v7.57c0,.7.3.95.79.95s.8-.25.8-.95V68.19h1.46Zm-.28-16.8V51.39H254V59c0,.7.31.95.8.95s.8-.25.8-.95V51.39H257v7.47c0,1.57-.78,2.47-2.29,2.47S252.45,60.43,252.45,58.86Zm2.36,35.94h-1.54V85h1.54Zm.34-16.8h-1.39V68.19h1.94l1.58,5.87V68.19h1.37V78h-1.58l-1.92-7.1Zm5.33,14.45a2.34,2.34,0,1,1-4.67,0v-5.1a2.34,2.34,0,1,1,4.67,0Zm5.87,2.35h-1.58l-1.92-7.1v7.1h-1.39V85h1.94L265,90.86V85h1.37Zm3.84-8.55h-.38c-.49,0-.72.19-.72.89v5.52c0,.7.23.88.72.88h.38V94.8h-.48c-1.54,0-2.16-.57-2.16-2.14V87.14c0-1.57.62-2.15,2.16-2.15h.48Zm3.07,6.41c0,1.57-.61,2.14-2.15,2.14h-.48V93.54H271c.49,0,.71-.18.71-.88V87.14c0-.7-.22-.89-.71-.89h-.38V85h.48c1.54,0,2.15.58,2.15,2.15Zm4-6.41h-.23c-.49,0-.7.23-.74,1l-.07,1.4a1.21,1.21,0,0,1-.91,1.25,1.2,1.2,0,0,1,.91,1.24l.07,1.4c0,.78.25,1,.74,1h.23V94.8h-.79A1.46,1.46,0,0,1,275,93.25l-.11-1.88c-.05-.65-.19-.84-.77-.84V89.27c.58,0,.72-.2.77-.84l.11-1.88A1.46,1.46,0,0,1,276.51,85h.79ZM283.22,78h-1.58l-1.92-7.1V78h-1.39V68.19h1.94l1.58,5.87V68.19h1.37Zm.37-16.8h-1.46v-7l-1.06,7h-1.46l-1.15-6.93V61.2h-.54V73.29c0,6.74-3,9.16-7.91,9.16h-8.76V78a2.14,2.14,0,0,1-1.62-2.38v-5.1a2.14,2.14,0,0,1,1.62-2.39V61a3.76,3.76,0,0,1-.08-1V58.46c0-.92-.3-1.25-1-1.25h-.53v4h-1.54V51.39h2.33a3.43,3.43,0,0,1,.83.1V44.4h-.46a3.09,3.09,0,0,1-.14-1.2V41.66c0-.92-.31-1.25-1-1.25h-.53v4h-1.54V34.59h2.32a2.77,2.77,0,0,1,1.36.29v-11a3.22,3.22,0,0,1-.64.07h-.73V27.6h-1.54V17.79h2.27a3.22,3.22,0,0,1,.64.07V15.1H270c2.81,0,5,.79,6.33,2.69h2.05V19.2H277.1a11.1,11.1,0,0,1,.71,2.95h0v.42c.05.54.08,1.09.08,1.69V51.39h1.34l1.14,7,1.05-7h2.14Zm-1.46-16.8a2.9,2.9,0,0,1-.14-1.2V41.66c0-.92-.31-1.25-1-1.25h-.54v4H278.9V34.59h2.33c1.6,0,2.28.75,2.28,2.26v.77a2,2,0,0,1-1,2c.77.32,1,1.06,1,2.09v1.51a2.94,2.94,0,0,0,.16,1.19Zm-.83-16.8V17.79h4.2V19.2h-2.66v2.73H285v1.4h-2.12V26.2h2.66v1.4Zm5.76,41.86h-.38c-.49,0-.72.18-.72.88v5.52c0,.7.23.88.72.88h.38V78h-.48c-1.54,0-2.16-.57-2.16-2.14V70.34c0-1.57.62-2.15,2.16-2.15h.48Zm.44.14V68.19h4.76V69.6h-1.61V78h-1.54V69.6Z" transform="translate(-1.17 -0.56)"/><path class="cls-7" d="M304.85,40.46V34.59h1.37V44.4h-1.58l-1.29-4.76V51.43a3,3,0,0,1,.94-.15c1.51,0,2.3.9,2.3,2.47v1h-1.46V53.65c0-.7-.31-1-.8-1s-.79.27-.79,1V59c0,.7.3.95.79.95s.8-.25.8-.95V57.54h1.46v1.31a2.15,2.15,0,0,1-2.3,2.46,2.73,2.73,0,0,1-.94-.15v7.18a2.68,2.68,0,0,1,1.19-.26,2.18,2.18,0,0,1,2.34,2.47v5.1a2.17,2.17,0,0,1-2.34,2.46,2.55,2.55,0,0,1-1.19-.26v7.6a2.2,2.2,0,0,1,.67,1.8V88a2.11,2.11,0,0,1-.67,1.76v.45A2.2,2.2,0,0,1,304,92.1v1.51a2.79,2.79,0,0,0,.17,1.19h-.86v1.12h42.38V82.45H318.89V78h-1.75V68.19h1.75V62.6h-.49l.41-1.4h-.59V59.72h.67V54.84h1.93V51.39h1.54v3.45h3.73V51.39h2.43c1.55,0,2.3.86,2.3,2.43v1h.91v-.22h4.57v.22h1V51.39h2.88v-7h-1.56a2.9,2.9,0,0,1-.14-1.2V41.66a2.36,2.36,0,0,0,0-.29H337v3h-1.55v-3h-1v.68a2.34,2.34,0,1,1-4.68,0v-.68h-3.61v3h-1.54v-3h-1.8l1,3h-1.63l-1-3h-.56l-1,3h-1.45l1-3h-.39V36.18l-.54-1.59h.54V21.11h0v-1c0-.16,0-.3,0-.45V15.1h26.84V10.92h-.06c-1.51,0-2.29-.9-2.29-2.47V1.64h-1.47a2.55,2.55,0,0,1,.56,1.78v5c0,1.57-.76,2.42-2.3,2.42h-2.44V1.64h-1.51a2.61,2.61,0,0,1,.52,1.71v5.1a2.34,2.34,0,1,1-4.68,0V3.35a2.61,2.61,0,0,1,.53-1.71h-1.52V10.8h-1.45v-7l-1.07,7H327.1L326,3.87V10.8H324.6V1.64h-1.26a2.72,2.72,0,0,1,.49,1.71c0,2.55-1.82,2.94-1.82,4.73a2.57,2.57,0,0,0,.06.55H320.7a1.72,1.72,0,0,1-.09-.6c0-2.15,1.68-2.34,1.68-4.78,0-.7-.28-1-.77-1s-.77.27-.77,1V4.31H319.3v-1a2.72,2.72,0,0,1,.49-1.71h-1.16V2.4H316V5.13h2.11v1.4H316V9.4h2.66v1.4h-4.21V1.64h-3.2V9.4h2.54v1.4h-4.08V1.64h-1.05V8.46c0,1.57-.78,2.47-2.3,2.47S304,10,304,8.46V1.64h-.69V17.79h2.27c1.6,0,2.28.75,2.28,2.26v.77a2,2,0,0,1-1,2c.77.32,1,1.06,1,2.09v1.51a3,3,0,0,0,.16,1.19h-1.56a2.92,2.92,0,0,1-.14-1.21V24.85c0-.91-.31-1.24-1-1.24h-.54v4h-1.48v7.31ZM341.06,85h1.54v7.57c0,.7.31,1,.8,1s.8-.25.8-1V85h1.46v7.47c0,1.57-.79,2.47-2.3,2.47s-2.3-.9-2.3-2.47Zm-4.46,0h2.25l1.57,9.81h-1.55L338.6,93h-1.89l-.27,1.78H335Zm-5.8,0h4.08V86.4h-2.54v2.95h2v1.4h-2v4H330.8Zm-5.15,0h4.2V86.4h-2.66v2.73h2.12v1.4h-2.12V93.4h2.66v1.4h-4.2Zm-5.71,0h2.44c1.54,0,2.29.86,2.29,2.43v5c0,1.57-.75,2.42-2.29,2.42h-2.44Zm.69-75.67h1.48V10.8h-1.48Zm-8,66.35A2.09,2.09,0,0,1,310.29,78h-2.42V68.19h2.33a2,2,0,0,1,2.28,2.26v.35a1.94,1.94,0,0,1-1,2,2,2,0,0,1,1.15,2.1ZM312,54.62v1.09h-4.57V54.62ZM310.84,44.4V42.92h1.48V44.4ZM312,56.89V58h-4.57V56.89Zm6.8,37.91h-1.49V93.32h1.49ZM317.5,85V86.4h-1.61v8.4h-1.54V86.4h-1.61V85Zm-4.36-7V76.6h.53c.49,0,.88-.18.88-.94V68.19h1.54v7.37c0,2-1,2.47-2.21,2.47A5.86,5.86,0,0,1,313.14,78Zm4.13-25.2h-2.66v2.73h2.11v1.4h-2.11V59.8h2.66v1.4h-4.2V51.39h4.2Zm-3.6-28.16h1.45v.7c0,.7.31,1,.8,1s.8-.26.8-1c0-2-3-2.39-3-5.19,0-1.57.77-2.47,2.27-2.47s2.27.9,2.27,2.47v.31h-1.46v-.41c0-.7-.28-1-.77-1s-.77.27-.77,1c0,2,3,2.4,3,5.2,0,1.57-.78,2.46-2.29,2.46s-2.3-.89-2.3-2.46Zm-.23,10h4.2V36H315v2.73h2.12v1.4H315V43h2.66v1.4h-4.2Zm-5-16.8h4.77V19.2h-1.61v8.4h-1.55V19.2h-1.61Zm-1.4,25.35h1V35.86h-1V34.59h2.55V44.4h-2.55Zm1.47,47.72V85h1.38V94.8h-1.59l-1.91-7.1v7.1H305V85H307Z" transform="translate(-1.17 -0.56)"/><path class="cls-7" d="M353.09,10.8h-.37l1.14,7h2.26V19.2h-1.61v2.61L357,37.23l.39-2.64h1.41l-1.08,7.06,1.57,9.74h4.14V52.8h-1.61v8.4h-.94l1.13,7H363V69.6h-.72L364.73,85h1.4V86.4H365l.48,2.95h.14v.88l.92,5.69h23.17l.18-1.12H388.8V85h1.54v6.77l2.87-17.7a1.23,1.23,0,0,0-.35,0h-.53v4h-1.54V68.19h2.33a3.33,3.33,0,0,1,1,.14l2.26-14v-3h.48l1.14-7h-.18V43.14h.38l.63-3.89V35.86h-1V34.59h1.76l1.66-10.21h-3.79V23.29h4l.19-1.18h-4.15V21h4.33l3.12-19.25V1.64H398a2.66,2.66,0,0,1,.5,1.71v.31H397V3.25c0-.7-.28-1-.77-1s-.77.27-.77,1c0,2,3,2.39,3,5.2,0,1.57-.78,2.46-2.3,2.46s-2.29-.89-2.29-2.46V7.84h1.45v.7c0,.71.31,1,.8,1s.8-.25.8-1c0-2-3-2.39-3-5.19a2.72,2.72,0,0,1,.49-1.71h-1V2.4h-1.62v8.4H390.3V3.92l-2.14,13.87H391V19.2h-2.66v2.73h2.11v1.4h-2.11V26.2H391v1.4h-4.2V27l-1.18,7.61h2.07V36h-2.28L385,38.43v.3h2.12v1.4H385V43h2.66v1.4h-3.58l-1.08,7h3.24V52.8h-1.61v8.4h-1.54V52.8h-.31l-2.37,15.39h2.24c1.54,0,2.3.86,2.3,2.43v1.27c0,1.57-.76,2.43-2.3,2.43h-.73V78h-1.54V68.36l-1,6.43v.86a3,3,0,0,1-.36,1.5l-.22,1.4-.15-1a2.34,2.34,0,0,1-1.61.54,2.17,2.17,0,0,1-2.34-2.46v-5.1A2.18,2.18,0,0,1,377,68.08h.15l-1.07-6.89h-.52l-1.92-7.1v7.1h-1.38V51.39h1.93l.89,3.31L373.5,44.23a2.25,2.25,0,0,1-1.08-2.18v-.61h.65L370.93,27.6h-1.1V20.51l-1.68-10.9-.39,1.19h-1.44l1.39-4.06-.56-3.62-.5-1.48h-.93V2.4h-2.66V5.13h2.12v1.4h-2.12V9.4h2.66v1.4h-4.2V1.64H358V2.4H355.3V5.13h2.12v1.4H355.3V9.4H358v1.4h-4.21V1.64h-2.52L352.5,9.4h.59Zm46.2-6.58h4.57V5.31h-4.57Zm0,2.27h4.57V7.58h-4.57ZM366.18,74.32h-.73V78h-1.54V68.19h2.27c1.54,0,2.3.86,2.3,2.43v1.27C368.48,73.46,367.72,74.32,366.18,74.32ZM364.1,61.2V51.39h1.54V61.2Zm7.29,31.26c0,1.57-.79,2.47-2.3,2.47s-2.3-.9-2.3-2.47V85h1.55v7.57c0,.7.3,1,.79,1s.8-.25.8-1V85h1.46Zm23.9-31.41-.67,1.55H394l.4-1.4h-.59V59.72h1.49ZM397,44.4H395.4l-1.92-7.1v7.1h-1.39V34.59H394l1.59,5.87V34.59H397ZM391.9,17.79h2.32c1.6,0,2.29.75,2.29,2.26v.77a2,2,0,0,1-1,2c.77.32,1,1.06,1,2.09v1.51a2.79,2.79,0,0,0,.17,1.19h-1.57a3.12,3.12,0,0,1-.14-1.21V24.85c0-.91-.31-1.24-1-1.24h-.53v4H391.9Zm-3.21,16.8h2.55v1.27h-1v7.28h1V44.4h-2.55Zm0,16.8h4.2V52.8h-2.66v2.73h2.12v1.4h-2.12V59.8h2.66v1.4h-4.2Zm-2.6,8.33h1.48v1.33l-.67,1.55h-.63l.41-1.4h-.59Zm-.41,8.47h4.2V69.6h-2.66v2.73h2.12v1.4h-2.12V76.6h2.66V78h-4.2ZM383.37,85h4.76V86.4h-1.61v8.4H385V86.4h-1.61Zm-5.08,2.36c0-1.57.78-2.47,2.3-2.47s2.29.9,2.29,2.47v1h-1.45v-1c0-.7-.31-1-.8-1s-.8.27-.8,1v5.29c0,.71.31,1,.8,1s.8-.25.8-1v-1.4h1.45v1.31c0,1.57-.78,2.46-2.29,2.46s-2.3-.89-2.3-2.46Zm-2.35,3.51V85h1.37V94.8h-1.58l-1.92-7.1v7.1h-1.39V85h1.94ZM373.8,70.45v.77a2,2,0,0,1-1,2c.77.32,1,1.06,1,2.09v1.51A2.93,2.93,0,0,0,374,78h-1.57a3.12,3.12,0,0,1-.14-1.21V75.25c0-.91-.31-1.24-1-1.24h-.53v4h-1.54V68.19h2.33A2,2,0,0,1,373.8,70.45Zm-2.49-16.7v5.1a2.34,2.34,0,1,1-4.68,0v-5.1a2.34,2.34,0,1,1,4.68,0Zm-1.83-12v1.51a2.93,2.93,0,0,0,.17,1.19h-1.57a3.09,3.09,0,0,1-.14-1.2V41.66c0-.92-.3-1.25-1-1.25h-.54v4h-1.54V34.59h2.33a2,2,0,0,1,2.28,2.26v.77a2,2,0,0,1-1,2C369.23,39.93,369.48,40.67,369.48,41.7Zm-4.92-23.91h2.27c1.54,0,2.29.86,2.29,2.43v1.27c0,1.57-.75,2.43-2.29,2.43h-.73V27.6h-1.54ZM362,26.12h1.49V27.6H362Zm.63,8.47,1.57,9.81H362.6l-.27-1.78h-1.89l-.27,1.78h-1.41l1.57-9.81ZM358.92,9.32h1.48V10.8h-1.48Zm-2.37,15.32H358v.7c0,.7.3,1,.79,1s.8-.26.8-1c0-2-3-2.39-3-5.19,0-1.57.77-2.47,2.27-2.47s2.27.9,2.27,2.47v.31h-1.46v-.41c0-.7-.28-1-.77-1s-.77.27-.77,1c0,2,3,2.4,3,5.2,0,1.57-.78,2.46-2.29,2.46s-2.3-.89-2.3-2.46Z" transform="translate(-1.17 -0.56)"/><path class="cls-7" d="M453.7,86.25h-.22V85h.78a1.82,1.82,0,0,1,.64.12A26.43,26.43,0,0,0,456.75,78a3.15,3.15,0,0,1-.71.08,2.17,2.17,0,0,1-2.33-2.46v-5.1A2.17,2.17,0,0,1,456,68.08a2.91,2.91,0,0,1,1,.17v-7.5a2.36,2.36,0,0,1-1.64.56,2.17,2.17,0,0,1-2.34-2.46v-5.1a2.18,2.18,0,0,1,2.34-2.47,2.32,2.32,0,0,1,1.64.57V43.39h-1.61v1h-1.54v-1H452.8l.35,1h-1.63l-.33-1h-1.87l-.33,1h-1.45l.35-1h-.95v1h-4.2v-1h-1.12v.86L441,45.8h-.63l.41-1.4h-.59v-1h-1.86v1h-1.54v-1H435.3V56.86h1.15V53.54c0-.7-.23-.88-.72-.88h-.38V51.39h.48c1.54,0,2.16.58,2.16,2.15v3.32h3.6V50.48h1.26V62.11h-.49v6.07a2.82,2.82,0,0,1,.74-.1c1.49,0,2.26.9,2.26,2.47v.31h-1.45v-.41c0-.7-.28-1-.77-1s-.77.27-.77,1c0,2,3,2.4,3,5.2a2.15,2.15,0,0,1-2.3,2.46,2.76,2.76,0,0,1-1.12-.22c-1,4-3.73,5.51-7.65,5.51-3.43,0-6-1.18-7.21-4.14h-5.79V78.14h5.41a14.85,14.85,0,0,1-.46-3.9v-13H425V52.8h-1.61V51.39h2.92v-7h-1.68V34.59h1.55V43h.13V23.92h-.61V27.6h-1.54V17.79h2.27a3,3,0,0,1,.88.13C428.55,15.17,431,14,434.31,14s6,1.23,7.21,4.23a2.22,2.22,0,0,1,1.62-.58c1.5,0,2.27.9,2.27,2.47v.31H444v-.41c0-.7-.28-1-.77-1s-.77.27-.77,1c0,2,3,2.4,3,5.2,0,1.57-.78,2.46-2.3,2.46a3,3,0,0,1-.76-.1v5.81h14.7v-9H457V23.29h0c-.14-6.17-1.64-11.22-4.49-15V10.8H451V6.57a16.79,16.79,0,0,0-2.28-1.92V10.8h-1.54V3.66A19.22,19.22,0,0,0,445,2.58a3.71,3.71,0,0,1,.08.77V4.3h-1.45v-1c0-.7-.31-1-.8-1s-.8.27-.8,1V8.54c0,.71.31,1,.8,1s.8-.25.8-1V7.14h1.45V8.45c0,1.57-.78,2.46-2.3,2.46s-2.29-.89-2.29-2.46V3.35a2.44,2.44,0,0,1,.77-2c-.57-.13-1.15-.25-1.75-.35V10.8h-1.58L436,3.7v7.1h-1.39V1h1.93l1.59,5.87V1h1.31a34.72,34.72,0,0,0-5.55-.43,33.85,33.85,0,0,0-5.58.44V2.4h-2.53V5.35h2v1.4h-2V10.8h-1.54V2c-.43.14-.83.3-1.24.47l-.1,1.39h-1L421.78,3c-.28.14-.53.3-.8.45l0,.43h-.74A19,19,0,0,0,418.57,5v.45H418a18.45,18.45,0,0,0-2.11,2.13V8.66c0,1.57-.62,2.14-2.16,2.14h0a28.17,28.17,0,0,0-3,13.46v2.08H411V27.6h-.23V51.39H411V61.2h-.32v7h4.17V69.6h-1.61V78h-1.54V69.6h-1v3.69a28.22,28.22,0,0,0,2.89,13.33V85h2.32c1.6,0,2.29.75,2.29,2.26V88a2,2,0,0,1-1,2c.77.32,1,1.06,1,2.09v.21c.32.25.67.49,1,.72V85h4.2V86.4h-2.66v2.73h2.11v1.4h-2.11V93.4h2.66v1.4h-1.07a31.26,31.26,0,0,0,23,0h-1.55l-1.92-7.1v7.1h-1.38V85h1.93l1.58,5.87V85h1.38v9.79A18.31,18.31,0,0,0,449.88,92V86.4h-1.61V85H453V86.4h-1.61v4.13a18.27,18.27,0,0,0,2.82-4.06A.6.6,0,0,0,453.7,86.25Zm-2.25-68.46h2.33c1.6,0,2.28.75,2.28,2.26v.77a2,2,0,0,1-1,2c.77.32,1,1.06,1,2.09v1.51a3,3,0,0,0,.16,1.19h-1.57a3.12,3.12,0,0,1-.14-1.21V24.85c0-.91-.3-1.24-1-1.24H453v4h-1.54Zm-5.15,0h4.2V19.2h-2.66v2.73H450v1.4h-2.12V26.2h2.66v1.4h-4.2ZM429,1h1.54V8.56c0,.7.31.95.8.95s.8-.25.8-.95V1h1.46V8.46c0,1.57-.79,2.47-2.3,2.47S429,10,429,8.46Zm-5.52,43.26-.67,1.55h-.63l.41-1.4H422V42.92h1.48ZM423,26.12V27.6h-1.48V26.12Zm-5.91-16.8h1.49V10.8h-1.49Zm-.16,8.47h4.76V19.2h-1.61v8.4h-1.54V19.2h-1.61Zm-1.67,3h1.48v1.48h-1.48Zm0,5.34h1.48V27.6h-1.48ZM413.4,39.06V37.58h1.48v1.48Zm1.48,3.86V44.4H413.4V42.92ZM411.4,26.34h.38c.49,0,.71-.18.71-.88V19.94c0-.7-.22-.89-.71-.89h-.38V17.79h.48c1.54,0,2.15.58,2.15,2.15v5.52c0,1.57-.61,2.14-2.15,2.14h-.48Zm-.66,18.06V34.59h1.54V44.4Zm2.9,16.8h-1.48V59.72h1.48Zm2.56,16.65-.67,1.55h-.63l.4-1.4h-.58V76.52h1.48Zm2.38-6.77h-1.05l-.21-2.89h1.49Zm.59-12.23a2.34,2.34,0,1,1-4.67,0v-5.1a2.34,2.34,0,1,1,4.67,0ZM417.38,37.3v7.1H416V34.59h1.93l1.58,5.87V34.59h1.38V44.4h-1.59Zm3.15,33.78h-1l-.21-2.89h1.48Zm-.27-12V53.54c0-1.57.62-2.15,2.16-2.15h.48v1.27h-.38c-.49,0-.72.18-.72.88v5.52c0,.7.23.88.72.88h.38V61.2h-.48C420.88,61.2,420.26,60.63,420.26,59.06ZM428.7,86.4h-1.61v8.4h-1.54V86.4h-1.61V85h4.76Zm5.2,6.06c0,1.57-.79,2.47-2.3,2.47s-2.3-.9-2.3-2.47V85h1.54v7.57c0,.7.31,1,.8,1s.8-.25.8-1V85h1.46Zm4.27,2.34a2.92,2.92,0,0,1-.14-1.21V92.05c0-.91-.31-1.24-1-1.24h-.54v4h-1.54V85h2.33c1.6,0,2.28.75,2.28,2.26V88a2,2,0,0,1-1,2c.77.32,1,1.06,1,2.09v1.51a3,3,0,0,0,.16,1.19Zm10.42-44.32h1.26V62.11h-1.26ZM452.72,78h-1.46V71l-1.07,7h-1.45l-1.15-6.93V78h-1.35V68.19h2.15l1.13,7,1.05-7h2.15Z" transform="translate(-1.17 -0.56)"/><path class="cls-7" d="M474.22,7.58h-3.05a21.38,21.38,0,0,0-4.75,10.21h.41V19.2h-.66q-.19,1.32-.27,2.73h.38v1.4h-.43c0,.31,0,.61,0,.93V26.2h1v1.4h-1v7h1.25c1.6,0,2.28.75,2.28,2.26v.77a2,2,0,0,1-1,2c.77.32,1,1.06,1,2.09v1.51a2.77,2.77,0,0,0,.17,1.19H468a2.9,2.9,0,0,1-.14-1.2V41.66c0-.92-.31-1.25-1-1.25h-.53v4h-.47v7H467v7.37c0,1.33-.49,2-1.16,2.27v7.16h.75v7.57c0,.7.31.95.8.95s.8-.25.8-.95V68.19h1.45v7.47c0,1.57-.78,2.47-2.3,2.47a2.59,2.59,0,0,1-1.2-.27A26,26,0,0,0,468,85h1.83V86.4H468.7A19,19,0,0,0,472,90.87V86.4h-1.61V85h4.76V86.4H473.5v5.85A19,19,0,0,0,476,93.91a3,3,0,0,1-.32-1.45V85h1.54v7.57c0,.7.31,1,.8,1s.8-.25.8-1V85h1.46v7.47c0,1.54-.76,2.43-2.22,2.46A28.88,28.88,0,0,0,489.41,97C504.66,97,513,88.38,513,73.29V61.2h-3.36V51.39H513V44a2.48,2.48,0,0,1-.72-1.94V34.59H513V24.26c0-.12,0-.24,0-.36l-.4,3.7h-2.12l-1.09-9.81h1.5l.83,7.74.72-7.54a22.32,22.32,0,0,0-3.58-8.88V10.8h-1.54V7.2c-.31-.35-.65-.67-1-1V8.45a2.34,2.34,0,1,1-4.68,0V3.35c0-.11,0-.21,0-.32-.48-.23-1-.43-1.52-.63h-2V5.13h2.11v1.4h-2.11V9.4h2.66v1.4h-4.2V1.32a33.1,33.1,0,0,0-7.21-.76,35.11,35.11,0,0,0-5.58.43h1.3V2.4h-1.62v8.4H482V2.4h-1.61V1.81a21,21,0,0,0-6.14,3v.51h-.72c-.46.37-.89.77-1.31,1.18h2ZM471,26.34h.38c.49,0,.72-.18.72-.88V19.94c0-.7-.23-.89-.72-.89H471V17.79h.48c1.54,0,2.16.58,2.16,2.15v5.52c0,1.57-.62,2.14-2.16,2.14H471Zm-3.08-.88V19.94c0-1.57.62-2.15,2.16-2.15h.48v1.26h-.38c-.49,0-.71.19-.71.89v5.52c0,.7.22.88.71.88h.38V27.6H470C468.49,27.6,467.87,27,467.87,25.46ZM468,61.2V51.39h4.2V52.8h-2.66v2.73h2.11v1.4h-2.11V59.8h2.66v1.4ZM474.74,78h-4.08V68.19h1.54V76.6h2.54ZM473,58.85v-5.1c0-1.57.79-2.47,2.3-2.47s2.3.9,2.3,2.47v1h-1.46V53.65c0-.7-.31-1-.8-1s-.8.27-.8,1V59c0,.7.31.95.8.95s.8-.25.8-.95V57.54h1.46v1.31a2.31,2.31,0,1,1-4.6,0Zm4.32-15.75c.49,0,.8-.25.8-1,0-2-3-2.4-3-5.2,0-1.57.77-2.47,2.27-2.47s2.27.9,2.27,2.47v.31h-1.46v-.41c0-.7-.28-1-.77-1s-.77.27-.77,1c0,2,3,2.4,3,5.2,0,1.57-.78,2.46-2.29,2.46s-2.3-.89-2.3-2.46v-.61h1.46v.71C476.57,42.85,476.87,43.1,477.36,43.1Zm2.25,26.5H477v2.73h2.11v1.4H477V76.6h2.66V78h-4.2V68.19h4.2Zm5,25.2a2.92,2.92,0,0,1-.14-1.21V92.05c0-.91-.31-1.24-1-1.24h-.54v4h-1.54V85h2.33c1.6,0,2.28.75,2.28,2.26V88a2,2,0,0,1-1,2c.77.32,1,1.06,1,2.09v1.51a3,3,0,0,0,.16,1.19Zm7.28,0h-1.59l-1.92-7.1v7.1H487V85h1.93l1.58,5.87V85h1.38ZM506.4,78h-4.07V68.19h1.54V76.6h2.53ZM501,61.2V51.39h1.54V61.2Zm4-7.1v7.1h-1.38V51.39h1.93l1.58,5.87V51.39h1.37V61.2H507Zm4.77,18.3v1.4H507V72.4Zm1.88-37.81V36h-1.61v8.4h-1.54V36h-1.61V34.59Zm-7.62-14.44a2.34,2.34,0,1,1,4.68,0v5.1a2.34,2.34,0,1,1-4.68,0Zm2.35,14.44V36h-2.66v2.73h2.12v1.4h-2.12V43h2.66v1.4h-4.2V34.59Zm-7.93-16.8h2.43c1.54,0,2.3.86,2.3,2.43v5c0,1.57-.76,2.42-2.3,2.42h-2.43ZM491.34,1h2.27c1.54,0,2.3.86,2.3,2.43V4.69c0,1.57-.76,2.43-2.3,2.43h-.73V10.8h-1.54ZM486.9,1l1.18,4.47L489.25,1h1.48l-2,6.56V10.8h-1.54V7.55L485.29,1Zm-5.29,16.8h.81c1.3-2.65,3.74-3.76,7-3.76s5.68,1.11,7,3.76h1v3.79c.05.55.09,1.12.09,1.74V34.59h1.45c1.6,0,2.28.75,2.28,2.26v.77a2,2,0,0,1-1,2c.77.32,1,1.06,1,2.09v1.51a2.77,2.77,0,0,0,.17,1.19h-1.57a2.9,2.9,0,0,1-.14-1.2V41.66c0-.92-.31-1.25-1-1.25h-.53v4h-.67v7h2.8V52.8h-2.54v3h2v1.4h-2V61.2h-.26v9.07l.33-2.08h2.26L501.61,78h-1.55l-.27-1.78H497.9L497.64,78H497c-1,3.94-3.74,5.53-7.62,5.53-5,0-8.06-2.56-8.06-9.29V71.08h-.58l-.21-2.89h.79V52.8h-.07v8.4h-1.55V52.8h-1.61V51.39h3.23v-7h-.77V42.92h.77V39.06h-.77V37.58h.77V23.32a14.91,14.91,0,0,1,.45-3.83Zm-.95,0h.47v1.26h-.38c-.49,0-.71.19-.71.89v5.52c0,.7.22.88.71.88h.38V27.6h-.47c-1.54,0-2.16-.57-2.16-2.14V19.94C478.5,18.37,479.12,17.79,480.66,17.79ZM475.2,4.22h4.56V5.31H475.2Zm0,2.27h4.56V7.58H475.2Zm-.73,19.85h.22c.49,0,.7-.22.74-1l.07-1.4a1.2,1.2,0,0,1,.91-1.24,1.21,1.21,0,0,1-.91-1.25l-.07-1.4c0-.77-.25-1-.74-1h-.22V17.79h.78a1.47,1.47,0,0,1,1.56,1.56l.11,1.88c0,.64.18.84.77.84v1.26c-.59,0-.73.19-.77.84L476.81,26a1.47,1.47,0,0,1-1.56,1.56h-.78Zm.21,8.25V36h-1.61v8.4h-1.54V36h-1.61V34.59Z" transform="translate(-1.17 -0.56)"/></g></g></svg>